<?xml version="1.0" encoding="UTF-8"?>
<!DOCTYPE svg PUBLIC "-//W3C//DTD SVG 1.1//EN" "http://www.w3.org/Graphics/SVG/1.1/DTD/svg11.dtd">
<!-- Creator: CorelDRAW 2019 (64 Bit) -->
<svg xmlns="http://www.w3.org/2000/svg" xml:space="preserve" width="101.028mm" height="128.374mm" version="1.1" style="shape-rendering:geometricPrecision; text-rendering:geometricPrecision; image-rendering:optimizeQuality; fill-rule:evenodd; clip-rule:evenodd"
viewBox="0 0 10088.54 12819.34"
 xmlns:xlink="http://www.w3.org/1999/xlink"
 xmlns:xodm="http://www.corel.com/coreldraw/odm/2003">
 <defs>
  <style type="text/css">
   <![CDATA[
    .fil0 {fill:#0091F1;fill-rule:nonzero}
   ]]>
  </style>
 </defs>
 <g id="Camada_x0020_1">
  <metadata id="CorelCorpID_0Corel-Layer"/>
  <g id="_2484637833312">
   <g>
    <path class="fil0" d="M536.11 11009.74l-428.37 0c-59.07,0 -107.75,50.24 -107.75,110.67l0 1587.85c0,60.83 48.68,111.07 107.75,111.07 60.48,0 110.16,-50.24 110.16,-111.07l0 -684.51 318.2 0c289.33,0 515.77,-217.56 515.77,-495.81 0,-285.51 -231.12,-518.2 -515.77,-518.2zm0 794.68l0 0 -318.2 0 0 -572.78 318.2 0c164.59,0 298.06,132.06 298.06,296.3 0,157.49 -127.92,276.48 -298.06,276.48z"/>
    <path class="fil0" d="M2095.96 12597.39l-643.66 0 0 -573.64 563.05 0c60.99,0 110.32,-48.68 110.32,-107.6 0,-61.48 -49.33,-111.17 -110.32,-111.17l-563.05 0 0 -576.97 643.66 0c60.67,0 105.87,-47.62 105.87,-110.52 0,-59.63 -46.75,-107.75 -105.87,-107.75l-754.23 0c-58.52,0 -107.9,50.04 -107.9,107.75l0 1590.78c0,60.83 48.52,111.07 107.9,111.07l754.23 0c60.67,0 105.87,-48.17 105.87,-111.07 0,-63.26 -45.2,-110.87 -105.87,-110.87z"/>
    <path class="fil0" d="M2885.8 11009.74l-391.14 0c-61.54,0 -111.22,49.03 -111.22,107.75l0 1590.78c0,60.83 49.68,111.07 111.22,111.07l391.14 0c297.51,0 540.14,-245.2 540.14,-542.22l0 -726.58c0,-298.02 -242.63,-540.81 -540.14,-540.81zm0 1587.65l0 0 -283.59 0 0 -1369.38 283.59 0c177.1,0 321.88,145.62 321.88,322.54l0 726.58c0,176.4 -144.78,320.27 -321.88,320.27z"/>
    <path class="fil0" d="M4558.64 11231.64c59.93,0 107.75,-50.39 107.75,-111.22 0,-60.43 -47.82,-110.67 -107.75,-110.67l-808.25 0c-59.98,0 -107.75,50.24 -107.75,110.67l0 1587.85c0,60.83 47.77,111.07 107.75,111.07 61.69,0 110.31,-50.24 110.31,-111.07l0 -684.51 616.06 0c61.69,0 110.37,-48.68 110.37,-107.6 0,-61.48 -48.68,-111.17 -110.37,-111.17l-616.06 0 0 -573.34 697.94 0z"/>
    <path class="fil0" d="M5783.8 12676.99l-521.88 -1591.13c-14.08,-44.5 -55.79,-76.12 -103.41,-76.12 -49.18,0 -91.75,30.57 -106.84,76.47l-518.4 1590.78c-11.14,31.63 -5.04,66.38 15.79,94.18 20.88,29.2 54.58,48.17 87.78,48.17 47.26,0 89.33,-34.25 105.32,-80.16l114.71 -374.49 602.84 0 115.37 374.49c14.78,49.03 55.08,80.16 102,80.16 33.04,0 64.31,-16.85 85.2,-43.99 21.33,-27.44 30.57,-63.25 21.54,-98.36zm-391.19 -530.01l0 0 -471.14 0 237.03 -725.92 234.11 725.92z"/>
    <path class="fil0" d="M6759.57 11968.16c166.47,-86.76 272.5,-263.31 272.5,-452.72 0,-278.6 -227.3,-505.7 -505.34,-505.7l-450.11 0c-57.35,0 -107.75,50.04 -107.75,107.75l0 1593.9c0,57.71 50.4,107.95 107.75,107.95 60.83,0 109.82,-48.83 109.82,-107.95l0 -687.64 361.12 0 271.44 719.61c17.05,45.2 62.19,75.97 107.39,75.97 31.28,0 59.13,-13.42 79.96,-40.5 21.89,-28.15 31.28,-66.74 21.54,-105.68l-268.31 -705zm54.23 -452.72l0 0c0,160.76 -129.65,289.54 -287.08,289.54l-340.29 0 0 -576.97 340.29 0c160.56,0 287.08,127.01 287.08,287.42z"/>
    <path class="fil0" d="M8539.46 11009.74c-39.65,0 -80.31,25.02 -97.86,62.04l-511.44 1024.41 -510.59 -1024.41c-17.85,-37.02 -58.72,-62.04 -98.51,-62.04 -57.51,0 -103.76,48.12 -107.6,110.67l0 1587.85c0,60.83 48.88,111.07 107.6,111.07 60.98,0 111.07,-50.24 111.07,-111.07l0 -1123.48 398.8 804.07c21.54,38.44 58.22,59.78 99.23,59.78 43.13,0 80.3,-21.34 98,-59.78l400.07 -804.42 0 1123.82c0,60.83 49.89,111.07 111.23,111.07 58.71,0 107.9,-50.24 107.9,-111.07l0 -1587.85c0,-52.82 -43.64,-110.67 -107.9,-110.67z"/>
    <path class="fil0" d="M10085.58 12676.99l-521.73 -1591.13c-14.58,-44.7 -57.86,-76.12 -103.91,-76.12 -48.83,0 -90.7,30.57 -107.55,76.47l-517.34 1590.78c-11.5,31.63 -4.54,66.38 14.07,94.18 22.25,29.2 55.44,48.17 89.64,48.17 45.2,0 90.03,-34.25 104.31,-80.16l114.86 -374.49 603.86 0 114.91 374.49c14.42,48.83 54.02,80.16 101.79,80.16 33.04,0 63.11,-16.85 83.94,-43.64 22.8,-27.79 31.13,-63.6 23.16,-98.71zm-392.61 -530.01l0 0 -469.37 0 236.18 -725.92 233.19 725.92z"/>
   </g>
   <polygon class="fil0" points="3253.73,5224.73 1849.04,5224.73 2047.33,6318.54 3349.47,6318.54 "/>
   <polygon class="fil0" points="3134.68,3854.65 1601.41,3854.65 1804.9,4981.09 3232.69,4981.09 "/>
   <path class="fil0" d="M6988.63 3045.84c-769.86,0 -1394.24,626.36 -1394.24,1399.65 0,772.84 624.38,1398.79 1394.24,1398.79 770.51,0 1394.75,-625.95 1394.75,-1398.79 0,-773.29 -624.24,-1399.65 -1394.75,-1399.65zm701.36 1656.15l0 0 -414.3 0 0 444.19c0,149.11 -125.14,263.82 -290.9,263.82 -158.7,0 -283.95,-114.71 -283.95,-263.82l0 -444.19 -414.64 0c-358.34,0 -370,-495.61 0,-514.01l414.64 0 0 -443.85c0,-149.46 125.25,-263.82 283.95,-263.82 165.76,0 290.9,114.36 290.9,263.82l0 443.85 414.3 0c358.69,0 371.21,496.66 0,514.01z"/>
   <path class="fil0" d="M7793.05 0l-5497.59 0c-1267.73,0 -2295.46,1027.77 -2295.46,2295.51l0 5497.53c0,1267.74 1027.73,2295.46 2295.46,2295.46l5497.59 0c1267.73,0 2295.46,-1027.72 2295.46,-2295.46l0 -5497.53c0,-1267.74 -1027.73,-2295.51 -2295.46,-2295.51zm-804.42 7974.84l0 0c-1.26,0 -4.03,-0.36 -4.54,-0.36l0 0.51 -4535.33 0c-257.21,0 -477.75,-186.8 -523.24,-442.09l-680.02 -3752.26c-42.43,-42.42 -68.45,-102.75 -68.45,-169.28 0,-132.06 108.61,-240.87 241.87,-240.87l1129.78 0 1063.19 -1186.42c80.96,-89.48 220.33,-96.6 310.17,-15.08 89.84,81.31 97.15,219.27 15.84,312.09l-799.06 889.41 2253.79 0c2.78,-5.39 4.49,-10.59 7.82,-12.86l-786.71 -876.54c-81.52,-92.82 -74.21,-230.78 15.29,-312.09 90.54,-81.53 229.06,-74.41 310.52,15.08l747.47 833.62c339.94,-323.54 795.24,-523.6 1301.63,-523.6 1062.28,0 1922.84,863.53 1922.84,1929.5 0,1065.81 -1320.91,3551.24 -1922.84,3551.24z"/>
   <path class="fil0" d="M5257.72 5350.54l-55.38 967.99 456.66 0c-157.28,-323.58 -297,-656.56 -401.27,-967.99z"/>
   <path class="fil0" d="M2091.62 6558.7l165.81 915.64c17.36,94.18 98.01,161.98 191.33,161.98l1015.42 0 -93.02 -1077.62 -1279.54 0z"/>
   <polygon class="fil0" points="3706.96,7636.32 4884.15,7636.32 4945.63,6558.7 3612.88,6558.7 "/>
   <path class="fil0" d="M5188.06 6558.7l-61.89 1077.62 1367.51 0c-231.12,-260.69 -483.09,-649.45 -710.44,-1077.62l-595.18 0z"/>
   <path class="fil0" d="M3376.26 3854.65l98.16 1126.44 1560.55 0 31.79 -547.76c0,-1.92 -1.21,-7.62 -1.21,-9.74 0,-12.86 3.13,-25.52 3.62,-38.24 0.2,-22.4 1.92,-47.62 2.63,-69.66 9.38,-161.47 40.65,-312.65 87.07,-461.05l-1782.61 0z"/>
   <polygon class="fil0" points="3591.69,6318.54 4959.35,6318.54 5021.61,5224.73 3496.16,5224.73 "/>
  </g>
 </g>
</svg>
